<?xml version="1.0"?>
<svg xmlns="http://www.w3.org/2000/svg" id="Capa_1" enable-background="new 0 0 512 512" height="20px" viewBox="0 0 512 512" width="20px" class=""><g><g><path d="m286 181c-11.045 0-15.498 15.073-15.542 15.22-3.56 13.008-25.254 13.066-28.901.088-.279-.923-4.732-15.308-15.557-15.308-9.844 0-15 8.994-15 17.886 0 13.315 13.418 25.356 39.126 47.271l5.874 5.053 5.874-5.054c25.708-21.914 39.126-33.955 39.126-47.27 0-8.892-5.156-17.886-15-17.886z" data-original="#000000" class="active-path" data-old_color="#000000" fill="#FFFFFF"/><path d="m497 196c-23.496 0-46.659-9.316-61.776-25.225l15-45.029c1.538-4.585.762-9.609-2.051-13.521-2.827-3.911-7.354-6.225-12.173-6.225h-30c-9.814 0-19.644 2.051-28.901 6.006-34.541-23.277-77.168-36.006-121.099-36.006-101.536 0-186.103 66.031-195.101 150h-15.899c-8.276 0-15-6.724-15-15 0-4.014 1.553-7.778 4.38-10.591 5.874-5.845 5.874-15.352.029-21.211-5.859-5.889-15.352-5.859-21.211-.029-8.51 8.481-13.198 19.79-13.198 31.831 0 24.814 20.186 45 45 45h16.265c2.844 26.581 13.735 52.154 30.892 74.59 18.867 24.682 28.843 51.723 28.843 78.208v12.202c0 8.291 6.709 15 15 15h60c6.46 0 12.188-4.131 14.224-10.254l7.632-22.896c24.99 4.189 51.299 4.189 76.289 0l7.632 22.896c2.036 6.123 7.763 10.254 14.223 10.254h60c8.291 0 15-6.709 15-15 0-5.2.278-10.225.806-15.103 5.376-50.419 52.137-89.897 105.194-89.897 8.291 0 15-6.709 15-15v-90c0-8.291-6.709-15-15-15zm-215.658 72.993-15.469 13.301c-2.827 2.476-6.343 3.706-9.873 3.706s-7.046-1.23-9.873-3.706l-15.469-13.301c-28.828-24.58-49.658-42.334-49.658-70.107 0-26.851 19.761-47.886 45-47.886 12.935 0 22.808 5.376 30 12.495 7.192-7.119 17.065-12.495 30-12.495 25.239 0 45 21.035 45 47.886 0 27.773-20.83 45.527-49.658 70.107zm124.658-12.993c-8.284 0-15-6.716-15-15s6.716-15 15-15 15 6.716 15 15-6.716 15-15 15z" data-original="#000000" class="active-path" data-old_color="#000000" fill="#FFFFFF"/></g></g> </svg>
